The Hobbit An Unexpected Journey 2012 DVDRip XviD AC3-Atilla82


SUBTITLES: English, Spanish, Croatian, Dutch, Portuguese, Swedish (.srt)





 
http://www.imdb.com/title/tt0903624/


A younger and more reluctant Hobbit, Bilbo Baggins, sets out on an "unexpected journey" to the Lonely Mountain with a spirited group of Dwarves to reclaim their stolen mountain home from a dragon named Smaug.





General
Complete name : The.Hobbit.An.Unexpected.Journey.2012.DVDRip.XviD.AC3-Atilla82.avi
Format : AVI
Format/Info : Audio Video Interleave
File size : 1.66 GiB
Duration : 2h 49mn
Overall bit rate : 1 398 Kbps
Writing application : VirtualDubMod 1.5.10.2 (build 2540/release)
Writing library : VirtualDubMod build 2540/release

Video
ID : 0
Format : MPEG-4 Visual
Format profile : Advanced Simple@L5
Format settings, BVOP : 1
Format settings, QPel : No
Format settings, GMC : No warppoints
Format settings, Matrix : Default (H.263)
Codec ID : XVID
Codec ID/Hint : XviD
Duration : 2h 49mn
Bit rate : 1 005 Kbps
Width : 640 pixels
Height : 272 pixels
Display aspect ratio : 2.35:1
Frame rate : 23.976 fps
Color space : YUV
Chroma subsampling : 4:2:0
Bit depth : 8 bits
Scan type : Progressive
Compression mode : Lossy
Bits/(Pixel*Frame) : 0.241
Stream size : 1.19 GiB (72%)
Writing library : XviD 1.2.1 (UTC 2008-12-04)

Audio
ID : 1
Format : AC-3
Format/Info : Audio Coding 3
Mode extension : CM (complete main)
Format settings, Endianness : Big
Codec ID : 2000
Duration : 2h 49mn
Bit rate mode : Constant
Bit rate : 384 Kbps
Channel(s) : 6 channels
Channel positions : Front: L C R, Side: L R, LFE
Sampling rate : 48.0 KHz
Bit depth : 16 bits
Compression mode : Lossy
Stream size : 466 MiB (27%)
Alignment : Split accross interleaves
Interleave, duration : 42 ms (1.00 video frame)
Interleave, preload duration : 500 ms



SCREENSHoTS 
http://www.pohrani.com/f/3G/ke/3lELUyBF/screenshots.jpg


